<?xml version="1.0" encoding="UTF-8"?>
<svg width="32px" height="32px" viewBox="0 0 32 32" version="1.1" xmlns="http://www.w3.org/2000/svg" xmlns:xlink="http://www.w3.org/1999/xlink">
    <!-- Generator: Sketch 52.1 (67048) - http://www.bohemiancoding.com/sketch -->
    <title>Icons/Thumbsup_inactive</title>
    <desc>Created with Sketch.</desc>
    <g id="Icons/Thumbsup_inactive" stroke="none" stroke-width="1" fill="none" fill-rule="evenodd">
        <path d="M7.37762855,17.7474495 C7.37316466,17.7491275 7.36881049,17.750793 7.36455726,17.7524489 C7.37309109,17.7491265 7.38119706,17.7458683 7.38888202,17.7424834 Z M7.5,17.7064277 L7.5,27.2167609 C7.58687414,27.2571306 7.70638641,27.3022628 7.85978861,27.3533436 C7.66210579,27.2874183 8.50251113,27.5547762 8.61591375,27.6123323 L11.802362,29.2247262 C13.4260055,30.0462355 15.337455,30.5 17.1764706,30.5 L27.0588235,30.5 C28.7124186,30.5 30.0665493,29.1425778 30.0916595,27.4048304 L31.4986196,16.0125979 C31.4994795,16.0059509 31.5,15.9974192 31.5,15.9881435 C31.5,14.2979195 30.1395133,12.924259 28.4705882,12.924259 L20.2058824,12.924259 L20.2058824,8.84362771 C20.2058824,4.88336943 19.7147569,2.76337224 17.9507011,1.72127281 C17.4547228,1.42781766 16.8664606,1.42610285 16.3659026,1.71690077 C15.8589292,2.01172213 15.5588235,2.53563118 15.5588235,3.12801509 L15.5588235,8.7641325 L15.4448248,8.90259162 L8.54954306,17.277375 C8.4387901,17.4117424 8.32997581,17.4605332 8.10796833,17.5318637 C8.01482617,17.56179 8.04611319,17.552992 7.71926801,17.6432984 C7.62883932,17.6682836 7.55770887,17.6886739 7.5,17.7064277 Z M7.46078388,27.1992938 C7.45814115,27.1967228 7.45580646,27.1951896 7.45397433,27.1942403 C7.45995559,27.1973392 7.46614566,27.2004673 7.47254517,27.2036252 Z" id="Shape" stroke="#A3A3A3"></path>
        <path d="M7.23851063,30.5 C7.38912406,30.5 7.5,30.3951927 7.5,30.2799507 L7.5,14.7200493 C7.5,14.6048073 7.38912406,14.5 7.23851063,14.5 L0.761489368,14.5 C0.610875937,14.5 0.5,14.6048073 0.5,14.7200493 L0.5,30.2799507 C0.5,30.3951927 0.610875937,30.5 0.761489368,30.5 L7.23851063,30.5 Z" id="Shape" stroke="#A3A3A3"></path>
    </g>
</svg>